<svg xmlns="http://www.w3.org/2000/svg" viewBox="0 0 512 512">
  <rect width="512" height="512" rx="96" fill="#F59E0B"/>
  <g transform="translate(256,256)">
    <path d="M-60,-80 L60,-80 M-60,80 L60,80 M-80,-60 L-80,60 M80,-60 L80,60 M-60,-80 C-60,-80 -100,-40 -80,-60 M60,-80 C60,-80 100,-40 80,-60 M-60,80 C-60,80 -100,40 -80,60 M60,80 C60,80 100,40 80,60" stroke="white" stroke-width="12" fill="none" stroke-linecap="round"/>
    <path d="M-70,0 L-20,-50 L-20,-15 L20,-15 L20,-50 L70,0 L20,50 L20,15 L-20,15 L-20,50 Z" fill="white"/>
  </g>
</svg>
